<svg width="92" height="31" viewBox="0 0 92 31" xmlns="http://www.w3.org/2000/svg" xmlns:xlink="http://www.w3.org/1999/xlink"><title>Logo</title><defs><path id="a" d="M0 30.584h91.991V.087H0z"/></defs><g fill="none" fill-rule="evenodd"><path fill="#000" d="M74.334 7.855h15.478v-1.98H74.334z"/><g transform="translate(0 .093)"><path d="M79.948 15.24H91.99v-1.979H72.154v1.98h5.504l-4.01 10.624c-.03.087.027.152.102.152h17.11c.08 0 .127-.08.098-.157l-2.55-6.767h-2.13a.11.11 0 0 0-.103.15l1.805 4.795H76.636l3.312-8.798zM62.295 5.784H60.6v4.584h-1.166V4.457H57.74v5.911h-1.166V5.784H54.88v6.203h7.414zm-7.953 4.967h-1.771c-.704 1.628-1.87 4.012-3.397 6.665a.112.112 0 0 0 .093.17h1.867c.189-.337.372-.669.548-.994v9.867h1.783V13.094c.4-.84.728-1.582.977-2.187a.112.112 0 0 0-.1-.156" fill="#000"/><mask id="b" fill="#fff"><use xlink:href="#a"/></mask><path fill="#000" mask="url(#b)" d="M54.86 14.875h7.438v-1.62H54.86zm7.38 6.199v-4.837h-6.973V18.9c0 1.852-.088 3.898-1.07 6.78-.025.072.024.139.104.139h1.73c.931-2.904 1.02-5.008 1.02-6.919v-1.044h3.405v4.655l-.748.603 1.002 1.265 3.175-2.56v-1.842c0-.095-.11-.141-.18-.085l-1.466 1.182"/><path d="M65.372 8.779h2.278l-.01.233c-.124 3.029-.266 6.458-1.286 9.536-.935-2.997-.98-6.401-.982-9.77m1.984 12.16c1.732-3.729 1.91-8.08 2.065-11.851l.013-.308h.728v-1.62h-5.1c.036-.116.516-1.688.751-2.443a.11.11 0 0 0-.102-.147H63.99c-.156.503-.937 3.062-1.25 4.076-.022.07.044.134.105.134h.744c.003 4.065.07 8.42 1.755 12.13a11.249 11.249 0 0 1-2.874 3.454v2.003a.11.11 0 0 0 .172.09 12.915 12.915 0 0 0 3.711-3.714c.926 1.405 2.16 2.678 3.81 3.754.084.055.168-.016.168-.09v-1.988a11.032 11.032 0 0 1-2.975-3.48m-15.982-9.7c1.485-2.574 2.6-4.862 3.255-6.403.032-.077-.022-.159-.1-.159h-1.974c-.728 1.625-1.872 3.892-3.36 6.393-.047.08.006.169.09.169h2.089z" fill="#000" mask="url(#b)"/><path d="M40.218 22.7a4.745 4.745 0 0 1-1.606 3.263 4.667 4.667 0 0 1-3.423 1.16 4.678 4.678 0 0 1-2.804-1.185c2.169-2.227 3.616-5.104 4.144-8.207a4.672 4.672 0 0 1 2.54 1.515 4.756 4.756 0 0 1 1.15 3.454m-23.457 4.02a6.89 6.89 0 0 0 .93-4.323c-.006-.057-.016-.114-.024-.17 2.733.817 5.834.56 8.349-1.354 2.69-2.046 4.151-6.191 1.564-9.842-1.178-1.662-3.113-2.697-5.044-2.675-1.795.011-3.384.888-4.475 2.469a1.413 1.413 0 0 0 .346 1.956 1.384 1.384 0 0 0 1.939-.35c.567-.822 1.33-1.26 2.207-1.265h.017c1.022 0 2.098.587 2.745 1.499 1.764 2.49.383 4.931-.976 5.965-3.01 2.29-7.423 1.09-9.5-1.418-2.562-3.095-2.381-7.928.412-11.003a10.035 10.035 0 0 1 7.3-3.31c2.885-.048 5.632 1.071 7.704 3.179 2.513 2.557 3.83 5.918 3.707 9.466-.12 3.49-1.655 6.788-4.211 9.047-3.697 3.27-8.744 4.076-12.99 2.129m-11.33-.818c-3.29-2.868-3.125-6.858-1.501-9.54 1.307-2.159 3.87-3.603 6.217-3.498.05.003.146.01.146.02a11.116 11.116 0 0 0 1.13 4.16c-.42.046-.834.14-1.233.283-1.396.501-2.391 1.53-2.805 2.897-.224.743.19 1.528.926 1.754.736.227 1.43-.027 1.738-.934.195-.574.69-.932 1.076-1.07.76-.274 1.706-.162 2.355.276.796.538 1.323 1.442 1.446 2.482.141 1.18-.245 2.34-1.087 3.267-1.975 2.173-6.274 1.763-8.408-.097M41.167 17.4a7.43 7.43 0 0 0-4.414-2.492c-.045-4.058-1.633-7.873-4.52-10.81-2.55-2.592-5.903-4.01-9.468-4.01-.09 0-.179 0-.268.003-3.588.07-6.89 1.57-9.298 4.22-1.486 1.636-2.411 3.65-2.769 5.744a.73.73 0 0 1-.165.003c-3.37-.138-6.872 1.803-8.71 4.84-2.238 3.694-2.47 9.187 2.055 13.132 1.622 1.412 4.019 2.24 6.385 2.24 1.727 0 3.435-.444 4.813-1.418.08.066.166.127.262.176a14.24 14.24 0 0 0 6.484 1.557c3.036 0 6.073-.962 8.69-2.819a7.442 7.442 0 0 0 5.278 2.18c1.81 0 3.54-.652 4.919-1.864a7.545 7.545 0 0 0 2.555-5.189 7.562 7.562 0 0 0-1.83-5.492" fill="#00A4FF" mask="url(#b)"/></g></g></svg>